<svg xmlns="http://www.w3.org/2000/svg" viewBox="0 0 120 80" fill="none" aria-hidden="true">
  <title>Tťrkiye silťeti (stilize)</title>
  <!-- Stilize Anadolu + Trakya; corafi hassasiyet prototip iťindir -->
  <path fill="#38bdf8" fill-opacity="0.14" d="M8 28c2-8 12-12 22-11 8 1 16-2 24-1 10 1 18 6 24 14 4 6 3 14-2 19-5 6-14 9-22 10-10 1-20-1-28-6-6-4-10-10-12-17-2-3-4-6-6-8zm52-6c6-2 12-1 18 2 7 3 12 9 14 16 2 8-1 16-7 21-5 4-12 6-19 5-7-1-13-5-17-11-3-5-4-11-2-17 2-6 7-11 13-14zm-44 8c4-1 8 1 11 4 3 4 4 9 2 14-2 4-6 7-11 8-5 1-10-1-13-5-3-4-3-9-1-13 2-4 7-7 12-8z"/>
  <path stroke="#38bdf8" stroke-opacity="0.28" stroke-width="0.4" fill="none" d="M10 30 Q35 18 58 22 T102 28 Q108 40 98 52 Q78 62 52 58 Q28 54 14 42 Q8 36 10 30z"/>
</svg>
